<svg width="32" height="32" viewBox="0 0 32 32" fill="none" xmlns="http://www.w3.org/2000/svg">
<path fill-rule="evenodd" clip-rule="evenodd" d="M19 1H7C5.34315 1 4 2.34315 4 4V28.0021C4 29.6589 5.34315 31.0021 7 31.0021H25C26.6569 31.0021 28 29.6589 28 28.0021V9.48441V8.50059V7.6133V7.15561L27.6536 6.85646L21.1536 1.24316L20.872 1H20.5H20H19ZM19.5 10.4844H26V28.0021C26 28.5544 25.5523 29.0021 25 29.0021H7C6.44772 29.0021 6 28.5544 6 28.0021V4C6 3.44772 6.44772 3 7 3H18V8.98441C18 9.81283 18.6716 10.4844 19.5 10.4844ZM20 8.48441V3H20.128L26 8.071V8.48441H20ZM21.5 16.0332C21.7761 16.0332 22 15.8094 22 15.5332V14.6621C22 14.386 21.7761 14.1621 21.5 14.1621H10.5C10.2239 14.1621 10 14.386 10 14.6621V15.5332C10 15.8094 10.2239 16.0332 10.5 16.0332H21.5ZM22 19.2755C22 19.5516 21.7761 19.7755 21.5 19.7755H10.5C10.2239 19.7755 10 19.5516 10 19.2755V18.4044C10 18.1282 10.2239 17.9044 10.5 17.9044H21.5C21.7761 17.9044 22 18.1282 22 18.4044V19.2755ZM21.5 23.5177C21.7761 23.5177 22 23.2939 22 23.0177V22.1466C22 21.8705 21.7761 21.6466 21.5 21.6466H10.5C10.2239 21.6466 10 21.8705 10 22.1466V23.0177C10 23.2939 10.2239 23.5177 10.5 23.5177H21.5Z" fill="#384F5F"/>
</svg>
