<svg width="118" height="94" viewBox="0 0 118 94" fill="none" xmlns="http://www.w3.org/2000/svg">
<path d="M111.646 53.2997C111.644 31.5316 98.4167 11.952 78.2336 3.84063C58.0505 -4.27074 34.9673 0.716157 19.9243 16.4378C4.88126 32.1594 0.901447 55.4564 9.87107 75.2871H106.906C110.037 68.3808 111.653 60.8835 111.646 53.2997Z" fill="#F3F3F3"/>
<path fill-rule="evenodd" clip-rule="evenodd" d="M5.88421 75C5.88421 74.3724 6.39298 73.8636 7.02058 73.8636H110.872C111.5 73.8636 112.009 74.3724 112.009 75C112.009 75.6276 111.5 76.1363 110.872 76.1363H7.02058C6.39298 76.1363 5.88421 75.6276 5.88421 75ZM-0.000244141 75C-0.000244141 74.3724 0.508523 73.8636 1.13612 73.8636H4.4647C5.0923 73.8636 5.60107 74.3724 5.60107 75C5.60107 75.6276 5.0923 76.1363 4.4647 76.1363H1.13612C0.508523 76.1363 -0.000244141 75.6276 -0.000244141 75ZM113.535 73.8636C112.908 73.8636 112.399 74.3724 112.399 75C112.399 75.6276 112.908 76.1363 113.535 76.1363H116.864C117.492 76.1363 118 75.6276 118 75C118 74.3724 117.492 73.8636 116.864 73.8636H113.535Z" fill="#888888"/>
<path d="M58.0545 94C76.254 94 91.0075 92.6569 91.0075 91C91.0075 89.3431 76.254 88 58.0545 88C39.8551 88 25.1016 89.3431 25.1016 91C25.1016 92.6569 39.8551 94 58.0545 94Z" fill="#F3F3F3"/>
<path d="M76.0295 43.0104L94.5032 6.51044L92.506 4.01044H90.0096L70.5374 41.0104L62.5488 44.5104L52.563 52.0104L31.5929 55.0104H23.105L21.6072 56.5104L24.6029 65.0104L34.0894 73.5104L50.0666 79.0104H62.5488L73.0338 69.5104L78.0267 56.5104L76.0295 49.5104V43.0104Z" fill="white" stroke="white"/>
<path d="M95.7866 4.57077C95.4261 3.4521 94.661 2.53602 93.6146 1.99871C91.4601 0.888849 88.8044 1.73446 87.6964 3.89252L69.476 39.2847C69.4408 39.3552 69.4144 39.4169 69.388 39.4873C66.8467 39.4961 64.1558 40.7381 61.3682 43.1869C61.0253 43.4864 60.6823 43.7947 60.3393 44.1029C58.7741 45.4947 57.1648 46.9305 55.4589 48.0579C53.3132 49.4761 50.9829 50.2072 48.1601 51.0176C44.9504 51.9336 41.4857 52.5943 37.5813 53.0347C34.231 53.4134 30.9773 53.6072 27.9259 53.6072C26.6332 53.6072 25.3493 53.572 24.0831 53.5015C24.0215 53.5015 23.9687 53.4927 23.9072 53.4927C23.8192 53.4839 23.7401 53.4839 23.6522 53.4839C22.553 53.4839 21.5065 54.0036 20.8382 54.8756C20.1171 55.827 19.9149 57.0601 20.3018 58.1876C21.8846 62.7856 24.6634 66.8991 28.559 70.4225C31.5928 73.1619 35.295 75.5402 39.5775 77.4957C42.0749 78.6319 44.4668 79.4952 46.5421 80.1382C46.6916 80.2087 46.8499 80.2527 47.0081 80.2791C50.6575 81.3714 53.2077 81.7589 53.3748 81.7854C53.3836 81.7854 53.3923 81.7854 53.4011 81.7854C53.4099 81.7854 53.4099 81.7854 53.4187 81.7854C53.577 81.803 53.7353 81.8206 53.8936 81.8206C53.9376 81.8206 53.9815 81.8206 54.0255 81.8206C61.8431 81.5652 67.9635 78.9226 72.2196 73.9635C77.1001 68.2821 79.747 59.2887 79.3161 49.9077C79.2018 47.5118 78.4367 45.3009 77.144 43.5656C77.1792 43.5128 77.2144 43.4599 77.2408 43.4071L95.5052 7.92678C96.0504 6.87857 96.1472 5.68944 95.7866 4.57077ZM69.4144 42.9667C69.6606 42.9667 69.9069 42.9931 70.1531 43.0371C70.3377 43.0724 70.5048 43.1164 70.6807 43.1693C71.2083 43.3366 71.7096 43.548 72.158 43.7858C72.7032 44.0765 73.1957 44.4112 73.609 44.79C73.7057 44.8781 73.7937 44.9662 73.8816 45.0631C75.0424 46.2698 75.7546 48.0932 75.8514 50.0662C75.8953 50.9647 75.9041 51.8544 75.8865 52.744C66.706 52.5855 63.5754 47.5999 62.9686 46.4196C63.1973 46.217 63.4259 46.0144 63.6546 45.8118C65.8002 43.918 67.7348 42.9667 69.4144 42.9667ZM53.9024 79.1428C53.9112 79.1428 53.9112 79.134 53.9024 79.1428V80.0765V79.1428ZM69.5991 71.6821C66.4246 75.3816 61.931 77.5573 56.2415 78.1739C57.6573 77.4604 59.0291 76.5091 60.1547 75.2407C60.7878 74.5272 60.7263 73.4262 60.014 72.7832C59.3017 72.149 58.2025 72.2106 57.5605 72.9241C54.5619 76.2977 48.8988 76.7469 47.5709 76.7998C45.6275 76.2008 43.3852 75.3904 41.0285 74.3158C40.7471 74.1837 40.4745 74.0604 40.1931 73.9283C45.1879 73.1619 52.7768 70.5987 59.9788 62.6623C60.6207 61.9488 60.568 60.8478 59.8645 60.2047C59.1522 59.5617 58.053 59.6146 57.4111 60.3192C52.9615 65.2343 47.8435 68.467 42.2156 69.9468C38.0122 71.0479 35.0751 70.7044 35.0312 70.6956C34.8729 70.6779 34.7146 70.6779 34.5651 70.6956C33.2461 69.7971 32.0149 68.837 30.8982 67.824C30.5904 67.551 30.3002 67.2691 30.01 66.9872C30.608 67.0313 31.2675 67.0665 31.9622 67.0665C34.9432 67.0665 38.7421 66.5468 42.5322 64.6089C43.3852 64.1685 43.7281 63.1203 43.2884 62.2659C42.8487 61.4115 41.8023 61.068 40.9493 61.5084C34.2661 64.9437 27.2752 63.0763 27.1696 63.0499C26.985 62.997 26.7915 62.9794 26.6156 62.9882C25.3318 61.1296 24.3205 59.1389 23.5994 57.0425C23.5906 57.0249 23.5994 56.9985 23.6082 56.9809C23.6258 56.9544 23.6522 56.9544 23.6698 56.9544C23.7489 56.9632 23.8368 56.9632 23.9248 56.972C25.2262 57.0425 26.5717 57.0778 27.9259 57.0778C31.1092 57.0778 34.486 56.8752 37.9683 56.4876C42.0661 56.0295 45.7067 55.3337 49.1098 54.3648C52.1261 53.5015 54.8257 52.6559 57.3759 50.9647C58.4047 50.2776 59.372 49.5201 60.313 48.7362C61.7991 51.0968 66.0376 55.9943 75.6755 56.2145C74.9896 62.354 72.8615 67.8945 69.5991 71.6821ZM92.4274 6.33245L74.5059 41.1257C74.2773 40.976 74.0399 40.835 73.7937 40.7117C73.4947 40.5532 73.1869 40.4122 72.8703 40.2713L90.783 5.47803C91.0204 5.02881 91.5744 4.84383 92.0317 5.08166C92.2516 5.19617 92.4098 5.38995 92.489 5.61897C92.5593 5.8568 92.533 6.11224 92.4274 6.33245Z" fill="#888888"/>
<rect x="80.0232" y="69.5104" width="3.9943" height="4" fill="white"/>
<path d="M73.486 76.4033C73.0288 76.4033 72.5803 76.5883 72.2549 76.9142C71.9295 77.2401 71.7449 77.6894 71.7449 78.1474C71.7449 78.6054 71.9295 79.0547 72.2549 79.3806C72.5803 79.7065 73.0288 79.8915 73.486 79.8915C73.9433 79.8915 74.3918 79.7065 74.7171 79.3806C75.0425 79.0547 75.2272 78.6054 75.2272 78.1474C75.2272 77.6894 75.0425 77.2401 74.7171 76.9142C74.3918 76.5883 73.9433 76.4033 73.486 76.4033Z" fill="#888888"/>
<path d="M83.6427 64.2125C83.968 63.8866 84.1527 63.4373 84.1527 62.9793C84.1527 62.5213 83.968 62.072 83.6427 61.7461C83.3173 61.4202 82.8688 61.2352 82.4116 61.2352C81.9543 61.2352 81.5058 61.4202 81.1804 61.7461C80.8551 62.072 80.6704 62.5213 80.6704 62.9793C80.6704 63.4373 80.8551 63.8866 81.1804 64.2125C81.5058 64.5384 81.9543 64.7234 82.4116 64.7234C82.8688 64.7234 83.3173 64.5384 83.6427 64.2125Z" fill="#888888"/>
<path d="M89.3586 73.9194C88.9013 73.9194 88.4528 74.1044 88.1275 74.4303C87.8021 74.7562 87.6174 75.2054 87.6174 75.6634C87.6174 76.1215 87.8021 76.5707 88.1275 76.8966C88.4528 77.2225 88.9013 77.4075 89.3586 77.4075C89.8158 77.4075 90.2643 77.2225 90.5897 76.8966C90.9151 76.5707 91.0997 76.1215 91.0997 75.6634C91.0997 75.2054 90.9151 74.7562 90.5897 74.4303C90.2643 74.1044 89.8158 73.9194 89.3586 73.9194Z" fill="#888888"/>
<path d="M82.0422 66.9607C79.3777 66.9607 77.2057 69.1364 77.2057 71.8053C77.2057 74.4743 79.3777 76.65 82.0422 76.65C84.7067 76.65 86.8787 74.4743 86.8787 71.8053C86.8787 69.1364 84.7067 66.9607 82.0422 66.9607ZM82.0422 73.1706C81.2859 73.1706 80.6792 72.554 80.6792 71.8053C80.6792 71.0478 81.2947 70.44 82.0422 70.44C82.7985 70.44 83.4052 71.0566 83.4052 71.8053C83.4052 72.554 82.7897 73.1706 82.0422 73.1706Z" fill="#888888"/>
</svg>
