<svg width="293" height="234" viewBox="0 0 293 234" fill="none" xmlns="http://www.w3.org/2000/svg">
<path d="M279.654 133.05C279.633 113.191 275.167 93.587 266.582 75.6745C257.996 57.7619 245.51 41.9939 230.036 29.5248C214.562 17.0557 196.492 8.20107 177.15 3.60917C157.808 -0.982726 137.683 -1.1957 118.247 2.98589C98.812 7.16747 80.5588 15.6378 64.824 27.7767C49.0891 39.9156 36.2709 55.4158 27.3078 73.1426C18.3446 90.8695 13.4633 110.374 13.0212 130.229C12.5792 150.084 16.5876 169.786 24.7529 187.894H267.785C275.625 170.672 279.672 151.969 279.654 133.05V133.05Z" fill="#F3F3F3"/>
<path fill-rule="evenodd" clip-rule="evenodd" d="M2.79475e-06 188.396C-0.000805565 187.995 0.173774 187.61 0.485846 187.325C0.640543 187.183 0.825311 187.069 1.02927 186.992C1.23323 186.915 1.45226 186.875 1.67352 186.875H9.9602C10.1816 186.874 10.4008 186.914 10.6049 186.991C10.8089 187.068 10.9936 187.182 11.1479 187.325C11.4599 187.61 11.6345 187.995 11.6337 188.396C11.6302 188.795 11.4527 189.177 11.1396 189.459C10.8265 189.741 10.403 189.901 9.9602 189.904H1.67352C1.23076 189.901 0.807169 189.741 0.494083 189.459C0.180998 189.177 0.0035309 188.795 2.79475e-06 188.396V188.396ZM14.6704 188.396C14.6746 187.994 14.8539 187.609 15.1697 187.325C15.3239 187.182 15.5087 187.068 15.7127 186.991C15.9168 186.914 16.136 186.874 16.3574 186.875H275.741C276.187 186.878 276.614 187.039 276.93 187.324C277.245 187.608 277.424 187.993 277.428 188.396C277.429 188.593 277.386 188.789 277.3 188.971C277.214 189.153 277.087 189.318 276.928 189.454C276.774 189.597 276.589 189.711 276.385 189.788C276.181 189.865 275.962 189.905 275.741 189.904H16.3574C16.136 189.905 15.9168 189.865 15.7127 189.788C15.5087 189.711 15.3239 189.597 15.1697 189.454C15.0131 189.316 14.8884 189.151 14.8027 188.97C14.717 188.788 14.672 188.593 14.6704 188.396V188.396ZM282.3 186.875C281.853 186.878 281.426 187.039 281.111 187.324C280.795 187.608 280.616 187.993 280.613 188.396C280.611 188.593 280.655 188.789 280.741 188.971C280.827 189.153 280.953 189.318 281.112 189.454C281.266 189.597 281.451 189.711 281.655 189.788C281.859 189.865 282.078 189.905 282.3 189.904H290.586C291.029 189.901 291.453 189.741 291.766 189.459C292.079 189.177 292.256 188.795 292.26 188.396C292.261 187.995 292.086 187.61 291.774 187.325C291.62 187.182 291.435 187.068 291.231 186.991C291.027 186.914 290.808 186.874 290.586 186.875H282.3Z" fill="#888888"/>
<path d="M143.775 233.04C189.23 233.04 226.021 230.023 226.021 226.312C226.021 222.602 189.203 219.609 143.775 219.609C98.3468 219.609 61.5293 222.602 61.5293 226.312C61.5293 230.023 98.3468 233.04 143.775 233.04Z" fill="#F3F3F3"/>
<path d="M143.712 169.278L145.062 179.451C144.603 188.737 133.59 196.046 120.458 195.776C107.327 195.506 97.0559 187.761 97.5148 178.475L98.2706 169.754L143.712 169.278Z" fill="white" stroke="#888888" stroke-width="7"/>
<path d="M120.146 186.22C114.338 186.2 108.692 184.399 104.046 181.082C99.9967 178.064 97.9047 174.12 98.1072 170.075C98.3096 166.029 100.806 162.188 105.125 159.337C110.029 156.251 115.824 154.701 121.699 154.906C127.507 154.925 133.153 156.727 137.8 160.043C141.848 163.074 143.94 167.005 143.738 171.064C143.535 175.122 141.039 178.95 136.706 181.801C131.806 184.883 126.016 186.428 120.146 186.22Z" fill="white" stroke="#888888" stroke-width="7"/>
<path d="M104.559 56.083V170.756C106.484 172.346 108.594 173.72 110.848 174.853C113.94 176.583 117.439 177.546 121.024 177.653C124.604 177.514 128.095 176.554 131.2 174.853C133.488 173.79 135.65 172.498 137.651 171V56.083C135.034 58.4264 132.023 60.3366 128.744 61.7345C126.405 62.9646 123.777 63.6099 121.105 63.6099C118.433 63.6099 115.805 62.9646 113.466 61.7345C110.186 60.3366 107.176 58.4264 104.559 56.083V56.083Z" fill="white" stroke="#888888" stroke-width="7.54" stroke-miterlimit="10"/>
<path d="M97.9473 42.8784V57.1483C100.287 60.3434 103.263 63.0707 106.706 65.1759C110.94 67.6913 115.878 68.923 120.864 68.708C125.703 68.8659 130.481 67.6352 134.576 65.1759C138.317 62.8397 141.462 59.7371 143.78 56.0951V40.9004" fill="white"/>
<path d="M97.9473 42.8784V57.1483C100.287 60.3434 103.263 63.0707 106.706 65.1759C110.94 67.6913 115.878 68.923 120.864 68.708C125.703 68.8659 130.481 67.6352 134.576 65.1759C138.317 62.8397 141.462 59.7371 143.78 56.0951V40.9004" stroke="#888888" stroke-width="7" stroke-miterlimit="10"/>
<path d="M120.862 56.083C134.092 56.083 144.818 49.6136 144.818 41.6333C144.818 33.6529 134.092 27.1836 120.862 27.1836C107.632 27.1836 96.9062 33.6529 96.9062 41.6333C96.9062 49.6136 107.632 56.083 120.862 56.083Z" fill="white" stroke="#888888" stroke-width="7" stroke-miterlimit="10"/>
<path d="M150.379 141.997L124.331 128.009C123.029 125.806 122.522 123.256 122.887 120.752C123.243 118.524 124.243 116.434 125.775 114.716C127.188 112.723 129.209 111.19 131.565 110.323C133.181 109.752 134.907 109.52 136.626 109.642L163.402 124.105" fill="white"/>
<path d="M150.379 141.997L124.331 128.009C123.029 125.806 122.522 123.256 122.887 120.752C123.243 118.524 124.243 116.434 125.775 114.716C127.188 112.723 129.209 111.19 131.565 110.323C133.181 109.752 134.907 109.52 136.626 109.642L163.402 124.105" stroke="#888888" stroke-width="6.05" stroke-miterlimit="10"/>
<path d="M162.119 136.678C165.782 131.837 166.441 126.329 163.592 124.377C160.742 122.425 155.464 124.768 151.801 129.609C148.139 134.451 147.48 139.958 150.329 141.91C153.178 143.863 158.457 141.52 162.119 136.678Z" fill="white" stroke="#888888" stroke-width="5.04976" stroke-miterlimit="10"/>
<path d="M178.923 164.5C169.678 164.834 161.662 152.324 161.054 136.564C160.447 120.804 167.438 107.755 176.696 107.421C185.955 107.087 193.958 119.61 194.579 135.369C195.2 151.129 188.182 164.179 178.923 164.5Z" fill="white" stroke="#888888" stroke-width="6.05" stroke-miterlimit="10"/>
<path d="M166.034 165.901C156.776 166.222 148.772 153.711 148.152 137.952C147.531 122.192 154.535 109.142 163.794 108.808C173.052 108.474 181.069 120.997 181.676 136.757C182.283 152.517 175.265 165.567 166.034 165.901Z" fill="white" stroke="#888888" stroke-width="6.05" stroke-miterlimit="10"/>
<path d="M163.766 108.808L178.422 107.511" stroke="#888888" stroke-width="5.04976" stroke-miterlimit="10"/>
<path d="M166.008 165.888L178.937 164.501" stroke="#888888" stroke-width="5.04976" stroke-miterlimit="10"/>
<path d="M165.885 140.34L163.361 133.546L161.984 134.458L165.885 140.34Z" fill="#888888" stroke="#888888" stroke-width="3.40923" stroke-miterlimit="10"/>
<path d="M162.942 139.082C161.822 139.082 160.999 137.361 161.093 135.306C161.188 133.25 162.146 131.632 163.253 131.671C164.359 131.709 165.196 133.405 165.102 135.447C165.007 137.489 164.049 139.12 162.942 139.082Z" fill="#888888" stroke="#888888" stroke-width="3.40923" stroke-miterlimit="10"/>
</svg>
