<svg width="28" height="28" viewBox="0 0 28 28" fill="none" xmlns="http://www.w3.org/2000/svg">
<path d="M5.78601 7.51679C4.84782 7.16155 4.37872 6.12542 4.70122 5.1781C5.05304 4.23078 6.0792 3.75712 7.01738 4.08276C5.05305 3.37227 2.88349 4.3788 2.17985 6.36225C1.47621 8.3457 2.47302 10.5364 4.43735 11.2469L22.9666 18.0557L7.01738 23.9173C5.05305 24.6278 2.88349 23.6212 2.17985 21.6378C1.47621 19.6543 2.47302 17.4637 4.43735 16.7532C1.44688 17.8485 -0.0776671 21.1641 1.00711 24.1837C2.09189 27.2033 5.37555 28.7427 8.36602 27.6473L25.7812 21.2529C27.5403 20.6016 28.4198 18.6478 27.8041 16.9012C27.4523 15.9243 26.69 15.2138 25.7812 14.8585L5.78601 7.51679Z" fill="#0C6B58"/>
<path d="M22.9666 9.94429L7.01738 4.08275C5.05305 3.37226 2.88349 4.37878 2.17985 6.36224C1.47621 8.34569 2.47302 10.5364 4.43735 11.2469C1.44688 10.1515 -0.0776671 6.8359 1.00711 3.81631C2.09189 0.796732 5.37555 -0.742664 8.36602 0.352674L25.7812 6.74708C27.5403 7.39837 28.4198 9.35221 27.8041 11.0988C27.4523 12.0758 26.69 12.7862 25.7812 13.1415L5.78601 20.4832C4.84782 20.8385 4.37872 21.8746 4.70122 22.8219C5.02373 23.7692 6.0792 24.2429 7.01738 23.9173C5.05305 24.6277 2.88349 23.6212 2.17985 21.6378C1.47621 19.6543 2.47302 17.4636 4.43735 16.7531L22.9666 9.94429Z" fill="#3EBD93"/>
</svg>
