<svg width="45" height="45" viewBox="0 0 45 45" fill="none" xmlns="http://www.w3.org/2000/svg">
<path d="M22.3481 42.9373C33.5238 42.9373 42.5834 33.8777 42.5834 22.7021C42.5834 11.5264 33.5238 2.4668 22.3481 2.4668C11.1725 2.4668 2.11279 11.5264 2.11279 22.7021C2.11279 33.8777 11.1725 42.9373 22.3481 42.9373Z" fill="#018374"/>
<path opacity="0.02" d="M41.8468 18.2286C35.4779 17.5916 29.0688 17.3123 22.652 17.3908C18.9591 17.4414 15.2155 17.5931 11.5732 17.8967C8.63786 18.1193 5.67012 18.4311 2.70239 18.7899C2.71592 18.7351 2.72969 18.6803 2.74367 18.6258C5.68224 18.2722 8.63168 17.965 11.5732 17.7449C15.2155 17.4414 18.9591 17.2896 22.652 17.239C29.0561 17.1414 35.4452 17.4054 41.7901 18.0284C41.8094 18.095 41.8283 18.1617 41.8468 18.2286Z" fill="white"/>
<path opacity="0.03" d="M42.0558 19.0486C35.4281 18.4169 28.7656 18.1486 22.095 18.2507C18.4021 18.3012 14.6585 18.453 11.0161 18.7059C8.1987 18.8897 5.37304 19.1311 2.55908 19.4103C2.57397 19.3406 2.58922 19.271 2.60481 19.2016C5.38907 18.9128 8.18133 18.6548 10.9655 18.453C14.6079 18.2001 18.3514 18.0483 22.095 17.9977C28.7537 17.9165 35.3961 18.1937 42.0027 18.8262C42.0207 18.9002 42.0384 18.9742 42.0558 19.0486Z" fill="white"/>
<path opacity="0.05" d="M42.0192 19.8493C35.3214 19.2661 28.4858 19.0008 21.5388 19.06C17.8458 19.1106 14.0517 19.2117 10.4093 19.4141C7.82933 19.5766 5.23302 19.7717 2.64331 19.9897C2.66135 19.9125 2.67982 19.8355 2.69874 19.7587C5.26258 19.5412 7.83596 19.3525 10.4093 19.2117C14.1023 19.0094 17.8458 18.8577 21.5388 18.8577C28.4681 18.7987 35.2869 19.0636 41.9688 19.6451C41.986 19.7131 42.0028 19.7811 42.0192 19.8493Z" fill="white"/>
<path opacity="0.06" d="M42.1874 20.6099C35.2709 20.0562 28.175 19.8072 20.9318 19.87C17.1883 19.87 13.4447 19.9711 9.7518 20.1734C7.34601 20.299 4.92292 20.4504 2.50757 20.6171C2.51802 20.5649 2.5287 20.5128 2.53955 20.4607C4.92599 20.2958 7.31784 20.146 9.70121 20.0217C13.3942 19.8193 17.1377 19.7182 20.8812 19.7182C28.1407 19.6764 35.2444 19.9373 42.1638 20.4939C42.1718 20.5325 42.1796 20.5712 42.1874 20.6099Z" fill="white"/>
<path opacity="0.08" d="M42.1476 21.373C35.1058 20.8694 27.8216 20.637 20.3246 20.6793C16.5811 20.6793 12.787 20.7805 9.14461 20.9322C6.9591 21.0188 4.76436 21.1239 2.57617 21.2435C2.58855 21.1867 2.60115 21.1299 2.61399 21.0734C4.77287 20.9524 6.93795 20.8367 9.09402 20.7299C12.787 20.5781 16.5305 20.4769 20.3246 20.4769C27.8139 20.4348 35.0831 20.6741 42.1068 21.1839C42.1206 21.2469 42.1343 21.3099 42.1476 21.373Z" fill="white"/>
<path opacity="0.09" d="M42.5762 22.1526C35.3387 21.6881 27.7433 21.4667 19.7179 21.4885C15.9238 21.4885 12.1803 21.5391 8.48735 21.6909L8.08824 21.7051C6.10417 21.7759 4.11047 21.8471 2.12769 21.9238C2.13049 21.8498 2.13368 21.7759 2.13727 21.7023C4.25835 21.6143 6.39815 21.5389 8.53794 21.4885C12.183 21.3886 15.9265 21.3381 19.6227 21.2881L19.7686 21.2861C27.7867 21.2645 35.3593 21.4842 42.5698 21.9492C42.5723 22.0169 42.5744 22.0847 42.5762 22.1526Z" fill="white"/>
<path opacity="0.11" d="M42.5826 22.8838C34.3532 22.4265 26.4541 22.2977 19.1106 22.2977C15.3165 22.2977 11.5223 22.3484 7.82935 22.3989C5.93126 22.4286 4.01581 22.4757 2.11353 22.5299C2.11396 22.4798 2.11458 22.4296 2.11537 22.3795C4.03367 22.3247 5.96564 22.2771 7.87995 22.2472C11.5728 22.146 15.3667 22.146 19.1608 22.146C27.5952 22.146 35.3387 22.3422 42.5833 22.7466C42.5832 22.7923 42.5829 22.8381 42.5826 22.8838Z" fill="white"/>
<path opacity="0.13" d="M42.5656 23.5617C34.517 23.1906 26.4853 23.0689 18.5541 23.0565C14.7097 23.0565 10.9151 23.0565 7.22237 23.1072L2.11848 23.1922C2.11728 23.1417 2.11629 23.0911 2.11548 23.0405L7.22237 22.9554C10.9148 22.9048 14.7083 22.9048 18.5524 22.9048H18.5541C26.4844 22.917 34.5183 23.0388 42.5714 23.4098C42.5696 23.4604 42.5677 23.5111 42.5656 23.5617Z" fill="white"/>
<path opacity="0.14" d="M42.5187 24.3352C34.4101 24.0437 26.2088 23.9525 17.9468 23.9163H4.89507H4.86109C3.95481 23.9185 3.05069 23.9206 2.14862 23.9223C2.14474 23.8569 2.14119 23.7915 2.13794 23.7259C3.03803 23.7223 3.94019 23.7181 4.84449 23.7139H17.8963C26.1783 23.7381 34.4021 23.8234 42.5351 24.1146C42.53 24.1883 42.5246 24.2618 42.5187 24.3352Z" fill="white"/>
<path opacity="0.16" d="M42.4515 25.0297C34.3986 24.8245 26.3453 24.7753 18.4303 24.7269L18.3012 24.7261H17.34L5.95764 24.6756C4.69975 24.6672 3.4488 24.6576 2.20451 24.6458C2.19812 24.5785 2.19202 24.5109 2.18628 24.4434C3.43657 24.4552 4.6936 24.4649 5.95764 24.4732L17.34 24.5237H18.3012L18.4156 24.5245C26.3542 24.5728 34.4196 24.622 42.4731 24.8326C42.4662 24.8984 42.4591 24.9641 42.4515 25.0297Z" fill="white"/>
<path opacity="0.17" d="M42.3576 25.7383C37.4127 25.6618 32.474 25.6298 27.5728 25.5981C26.9773 25.5942 26.3824 25.5904 25.788 25.5865C22.8539 25.5865 19.768 25.5865 16.7833 25.5359C13.0904 25.5359 9.2457 25.4853 5.35039 25.3841C4.33051 25.3692 3.30744 25.3527 2.28144 25.3342C2.27458 25.2813 2.26792 25.2283 2.26147 25.1753C3.29416 25.1959 4.32391 25.2148 5.35039 25.2323C9.2457 25.283 13.0904 25.3335 16.7833 25.3841L25.788 25.4347C31.2717 25.4529 36.8207 25.4775 42.3832 25.5626C42.3749 25.6212 42.3664 25.6798 42.3576 25.7383Z" fill="white"/>
<path opacity="0.19" d="M42.2448 26.4103C38.795 26.395 35.3613 26.395 31.9596 26.395H31.9585C26.7989 26.395 21.5381 26.395 16.2773 26.3443L15.9809 26.3403C12.3309 26.291 8.58764 26.2404 4.84431 26.1419C4.02885 26.1221 3.21135 26.1006 2.39195 26.0774C2.38077 26.0107 2.36991 25.9438 2.35938 25.877C3.15581 25.8994 3.95044 25.9202 4.74315 25.9396C8.53704 26.0395 12.3309 26.09 16.0761 26.14L16.2266 26.1419C21.4373 26.1926 26.749 26.1926 31.909 26.1926C35.3442 26.1926 38.8062 26.1926 42.2811 26.2082C42.2693 26.2757 42.2572 26.3431 42.2448 26.4103Z" fill="white"/>
<path opacity="0.2" d="M42.1037 27.1082C40.3942 27.1219 38.679 27.1375 36.958 27.1531L36.8167 27.1545C29.8355 27.205 22.6521 27.2557 15.5697 27.205C11.7755 27.1545 7.93085 27.0533 4.08615 26.9521C3.56971 26.9356 3.057 26.9181 2.54795 26.8998C2.52996 26.8144 2.51252 26.7289 2.49561 26.6431C3.03031 26.6628 3.56054 26.6815 4.08615 26.6992C7.93085 26.8004 11.7755 26.9015 15.5697 26.9521C21.2701 27.0335 27.0361 26.9839 32.7093 26.935C34.0846 26.9232 35.4546 26.9114 36.8167 26.9015C37.3788 26.8972 37.9417 26.8928 38.5055 26.8885C39.719 26.8791 40.9364 26.8696 42.1569 26.861C42.1397 26.9436 42.122 27.0261 42.1037 27.1082Z" fill="white"/>
<path opacity="0.22" d="M41.952 27.7424C41.6231 27.7487 41.294 27.755 40.9647 27.7614C40.0021 27.7786 39.0356 27.7964 38.0658 27.8144C30.4732 27.9544 22.6779 28.0983 14.9623 27.9637C11.1682 27.9132 7.2729 27.812 3.42819 27.6602C3.19019 27.65 2.95266 27.6395 2.7156 27.6289C2.69448 27.5443 2.67388 27.4596 2.65381 27.3745C2.91138 27.3857 3.1695 27.3967 3.42819 27.4073C7.2729 27.559 11.1682 27.6602 14.9623 27.7108C23.6635 27.9132 32.4659 27.7614 40.9647 27.559C41.311 27.5523 41.6571 27.5457 42.0029 27.5391C41.9863 27.607 41.9693 27.6747 41.952 27.7424Z" fill="white"/>
<path opacity="0.24" d="M41.7564 28.4508C32.7418 28.7233 23.5066 28.9615 14.3552 28.8236C10.5974 28.7735 6.74051 28.6241 2.93178 28.4247C2.91169 28.3564 2.89195 28.2878 2.87256 28.2192C6.70052 28.4202 10.5782 28.5709 14.4057 28.6212C23.573 28.7594 32.8242 28.52 41.8154 28.2469C41.7961 28.3151 41.7765 28.383 41.7564 28.4508Z" fill="white"/>
<path opacity="0.25" d="M41.5389 29.1419C32.3935 29.5386 23.0703 29.8498 13.8496 29.6838C10.3187 29.6372 6.7451 29.5055 3.20723 29.2884C3.18361 29.2197 3.16036 29.1508 3.13745 29.0817C6.69811 29.3014 10.2954 29.4347 13.8496 29.4814C23.0931 29.6479 32.4394 29.3347 41.6065 28.9365C41.5843 29.0051 41.5618 29.0735 41.5389 29.1419Z" fill="white"/>
<path opacity="0.27" d="M41.3322 29.727C32.0282 30.2398 22.5657 30.6352 13.1915 30.4423C9.98869 30.4002 6.71562 30.2528 3.48933 30.0584C3.46232 29.9892 3.43568 29.9198 3.40942 29.8502C6.68585 30.0474 9.9566 30.1974 13.1915 30.2399C22.5909 30.4334 32.0791 30.0353 41.4073 29.5205C41.3825 29.5895 41.3575 29.6584 41.3322 29.727Z" fill="white"/>
<path opacity="0.28" d="M41.4303 30.4115C31.9091 31.0522 22.2443 31.5218 12.6857 31.3021C9.64607 31.222 6.54324 31.1104 3.45215 30.9172C3.4202 30.8341 3.38879 30.7507 3.35791 30.667C6.4503 30.8732 9.5427 31.0089 12.635 31.0491C22.242 31.2331 31.9561 30.7744 41.5239 30.1406C41.4933 30.2312 41.4622 30.3215 41.4303 30.4115Z" fill="white"/>
<path opacity="0.3" d="M40.8021 31.0199C31.2495 31.7729 21.5664 32.3185 11.9774 32.1116C9.41356 32.045 6.8277 31.9346 4.24879 31.7659C4.21281 31.6941 4.17724 31.6221 4.14209 31.5499C6.78573 31.7263 9.43 31.8409 12.0281 31.9092C21.6407 32.1167 31.3242 31.5915 40.8847 30.8345C40.8575 30.8964 40.8299 30.9582 40.8021 31.0199Z" fill="white"/>
<path opacity="0.31" d="M40.4851 31.6897C30.8302 32.5633 21.0717 33.1524 11.4212 32.9211C9.18973 32.8631 6.94167 32.7554 4.69602 32.6073C4.65681 32.5375 4.618 32.4675 4.57959 32.3973C6.86395 32.5493 9.15116 32.6598 11.4212 32.7187C21.1062 32.9509 30.9 32.3568 40.5887 31.478C40.5545 31.5488 40.5201 31.6194 40.4851 31.6897Z" fill="white"/>
<path opacity="0.33" d="M40.1547 32.3277C30.4455 33.3207 20.6405 33.9849 10.9154 33.7307C9.01082 33.6794 7.10907 33.5932 5.21112 33.4724C5.15729 33.3868 5.10409 33.3008 5.05151 33.2145C6.98544 33.3385 8.92356 33.4264 10.8649 33.4777C20.6552 33.7337 30.5266 33.0589 40.2997 32.0547C40.252 32.146 40.2037 32.2371 40.1547 32.3277Z" fill="white"/>
<path opacity="0.36" d="M40.3086 32.0369C39.3789 32.1495 38.4505 32.259 37.5246 32.3646C27.407 33.5282 19.0599 34.0341 11.4211 33.9329C9.4185 33.9088 7.40444 33.8501 5.38985 33.7514C5.34395 33.6811 5.29847 33.6105 5.25342 33.5395C7.32636 33.644 9.40513 33.7056 11.4716 33.7305C19.1104 33.8317 27.3564 33.3258 37.5246 32.1623C38.4884 32.0523 39.4537 31.9382 40.4194 31.8208C40.3829 31.8931 40.3459 31.9652 40.3086 32.0369Z" fill="white"/>
<path opacity="0.39" d="M40.3791 31.901C39.476 32.0248 38.5746 32.146 37.6765 32.264C27.6601 33.5792 19.5659 34.2369 12.1294 34.2875C9.98172 34.3137 7.834 34.2857 5.69331 34.2033C5.64513 34.1336 5.59738 34.0637 5.55005 33.9934C7.75493 34.0816 9.96748 34.1121 12.1801 34.0851C19.5659 34.0345 27.6601 33.3769 37.6765 32.0616C38.6108 31.9389 39.5488 31.8127 40.4885 31.6836C40.4525 31.7563 40.416 31.8287 40.3791 31.901Z" fill="white"/>
<path opacity="0.43" d="M40.5655 31.5265C39.6167 31.6732 38.6695 31.8181 37.7271 31.9605C27.7106 33.4782 20.0211 34.2371 12.7365 34.3888C10.4429 34.4461 8.13312 34.4547 5.8347 34.4053C5.80213 34.3595 5.76975 34.3134 5.73755 34.2672C8.06803 34.3279 10.4106 34.3242 12.7365 34.2371C19.9706 34.0347 27.66 33.3264 37.6765 31.8088C38.6639 31.6595 39.6566 31.505 40.6515 31.3472C40.6231 31.4071 40.5944 31.4669 40.5655 31.5265Z" fill="white"/>
<path opacity="0.46" d="M40.6401 31.3702C39.6646 31.5385 38.6924 31.7018 37.727 31.8584C31.0493 32.9713 22.247 34.3372 13.2928 34.7418C10.9287 34.8616 8.54689 34.9105 6.18925 34.8885C6.13795 34.8207 6.08706 34.7524 6.03662 34.6837C8.45681 34.7114 10.9001 34.6632 13.3435 34.5395C22.3481 34.1349 31.0999 32.7689 37.727 31.656C38.734 31.4815 39.7447 31.3033 40.7551 31.1235C40.7173 31.2061 40.679 31.2883 40.6401 31.3702Z" fill="white"/>
<path opacity="0.49" d="M40.7627 31.1081C39.7969 31.2946 38.8334 31.4779 37.8788 31.657C30.8976 32.9722 22.6518 34.3887 14.0011 34.9958C11.4742 35.1578 8.968 35.2575 6.48252 35.2684C6.41045 35.1776 6.33911 35.0859 6.26855 34.9938C8.82413 34.9883 11.4016 34.9095 14.0011 34.7429C22.6011 34.1864 30.8976 32.7699 37.8282 31.4546C38.8355 31.2658 39.8526 31.067 40.8719 30.8647C40.836 30.9462 40.7996 31.0273 40.7627 31.1081Z" fill="white"/>
<path opacity="0.52" d="M40.8905 30.8215C40.8514 30.83 40.8123 30.8385 40.7732 30.847C39.8402 31.0493 38.9072 31.2517 37.9799 31.454C31.0999 32.9211 23.0057 34.4893 14.6587 35.1975C12.0422 35.4417 9.40159 35.5657 6.75352 35.6024C6.6959 35.5329 6.63873 35.4628 6.58203 35.3925C9.259 35.3464 11.946 35.2082 14.6081 34.9952C22.9046 34.2869 31.0493 32.7187 37.8788 31.2516C38.8062 31.0493 39.7394 30.8469 40.6726 30.6445C40.7807 30.621 40.8889 30.5976 40.9969 30.5742C40.9621 30.6569 40.9265 30.7393 40.8905 30.8215Z" fill="white"/>
<path opacity="0.55" d="M40.9724 30.6322C39.9773 30.8762 38.9787 31.119 37.9799 31.3527C31.2517 32.9209 23.2588 34.6915 15.2153 35.5515C12.5446 35.8403 9.87388 36.0259 7.2032 36.1271C7.12361 36.0373 7.04481 35.9469 6.9668 35.8557C9.73315 35.7632 12.4995 35.547 15.2658 35.248C23.2588 34.388 31.2517 32.668 37.9799 31.0997L37.9821 31.0993C39.0163 30.8571 40.0505 30.6151 41.0806 30.373C41.0451 30.4597 41.009 30.5461 40.9724 30.6322Z" fill="white"/>
<path opacity="0.59" d="M41.1114 30.2967L38.0809 31.0997C31.0997 32.9209 23.5621 34.6914 15.8727 35.7032C13.099 36.0885 10.2958 36.3271 7.50815 36.4636C7.44888 36.3997 7.38999 36.3354 7.33154 36.2707C10.1946 36.1358 13.0336 35.8951 15.8727 35.5009C23.5621 34.4891 31.0492 32.6679 38.0304 30.8973C39.0865 30.6265 40.1426 30.3557 41.1988 30.0771C41.17 30.1505 41.1409 30.2237 41.1114 30.2967Z" fill="white"/>
<path opacity="0.62" d="M41.1964 30.0839L38.2329 30.9483C30.2906 33.1741 23.5623 34.8941 16.5811 36.0071C13.7461 36.4526 10.8787 36.7684 7.97883 36.9545C7.9158 36.8909 7.8532 36.827 7.79102 36.7625C10.7196 36.5779 13.6419 36.2587 16.5306 35.8047C23.5117 34.7423 30.1894 33.0223 38.1823 30.7459L41.2904 29.8394C41.2596 29.9212 41.2284 30.0027 41.1964 30.0839Z" fill="white"/>
<path opacity="0.65" d="M41.3245 29.7478L38.2832 30.6958C31.9597 32.6687 24.6244 34.844 17.1879 36.1593C14.2655 36.7522 11.3431 37.1324 8.391 37.3593C8.32247 37.2939 8.25438 37.2282 8.18677 37.162C11.1739 36.927 14.1303 36.5217 17.0868 36.0075C24.5232 34.6922 31.8585 32.4664 38.182 30.544L41.4 29.541C41.3752 29.6101 41.35 29.6791 41.3245 29.7478Z" fill="white"/>
<path opacity="0.68" d="M41.4084 29.5185C41.3954 29.523 41.3825 29.5274 41.3696 29.5318L38.3343 30.5942L38.2818 30.6114C31.8216 32.7312 24.9091 34.9993 17.7955 36.4625C14.8737 37.073 11.9144 37.5331 8.91755 37.8429C8.83248 37.7674 8.74807 37.6911 8.66431 37.6142C11.7074 37.3043 14.7459 36.8361 17.7448 36.2095C24.8272 34.7425 31.7577 32.5166 38.2836 30.3413L41.3189 29.3296C41.3777 29.3097 41.4365 29.2899 41.4953 29.27C41.4669 29.3532 41.4378 29.4359 41.4084 29.5185Z" fill="white"/>
<path opacity="0.71" d="M41.5055 29.2401C41.4281 29.2685 41.3507 29.2969 41.2734 29.3254L40.7118 29.5316L38.4353 30.3916C31.8083 32.8199 25.2824 35.1469 18.4529 36.7152C15.4704 37.4383 12.4877 37.9594 9.46895 38.3149C9.39785 38.2561 9.32713 38.1969 9.25684 38.1372C12.3476 37.7814 15.3962 37.2528 18.4024 36.5128C25.2318 34.9445 31.7071 32.6175 38.3848 30.1893L40.6612 29.3293L41.2034 29.1302C41.332 29.0829 41.4608 29.0356 41.5895 28.9883C41.5621 29.0725 41.5341 29.1564 41.5055 29.2401Z" fill="white"/>
<path opacity="0.74" d="M41.6401 28.8304C41.1378 29.0298 40.6367 29.2291 40.1368 29.428L40.0034 29.481L38.4351 30.1386C31.6563 32.8198 25.5351 35.1975 19.0093 36.9175C16.0346 37.7076 13.0173 38.327 9.99646 38.7362C9.94043 38.693 9.88465 38.6495 9.8291 38.6057C12.9227 38.1601 16.0137 37.5749 19.0598 36.7657C25.5858 35.0457 31.7069 32.7186 38.4351 29.9869L40.0034 29.3798L40.14 29.3255C40.651 29.1223 41.1631 28.9186 41.6764 28.7148C41.6644 28.7534 41.6523 28.792 41.6401 28.8304Z" fill="white"/>
<path opacity="0.78" d="M41.6962 28.6513C40.9784 28.9617 40.2624 29.2725 39.5482 29.5827L38.5871 29.9874C31.7071 32.9721 25.94 35.4004 19.7176 37.1709C16.7711 38.0264 13.7352 38.7479 10.6939 39.2516C10.6361 39.2108 10.5786 39.1698 10.5212 39.1284C13.6162 38.6276 16.6648 37.9414 19.6671 37.0697C25.8893 35.198 31.6059 32.8204 38.5364 29.8356L39.4976 29.4309C40.2482 29.105 41.001 28.7783 41.7562 28.4521C41.7366 28.5187 41.7165 28.5851 41.6962 28.6513Z" fill="white"/>
<path opacity="0.81" d="M41.7856 28.3509C40.8986 28.7634 40.0151 29.1771 39.1347 29.5893L39.0424 29.6325L38.6376 29.8349L38.5022 29.898C32.676 32.6102 26.6498 35.4155 20.3247 37.4737C17.3975 38.4335 14.4702 39.2111 11.4566 39.7635C11.3714 39.709 11.2867 39.6539 11.2024 39.5981C14.2878 39.0437 17.281 38.2527 20.2742 37.2713C26.5993 35.2132 32.6256 32.4078 38.4518 29.6956L38.5871 29.6325L38.9918 29.4301L39.0842 29.3869C40.0056 28.9555 40.9304 28.5224 41.8591 28.0908C41.8352 28.1778 41.8107 28.2644 41.7856 28.3509Z" fill="white"/>
<path opacity="0.84" d="M41.8663 28.0646C40.888 28.5523 39.915 29.0416 38.9468 29.5287L38.7385 29.6334L38.6374 29.684C32.9715 32.5675 27.0527 35.5522 20.982 37.7275C18.1097 38.7499 15.1907 39.5848 12.2247 40.2323C12.1151 40.169 12.0062 40.1046 11.8979 40.0391C14.959 39.3835 17.9701 38.5286 20.9315 37.4746C27.002 35.3499 32.8703 32.4158 38.5362 29.5322L38.6374 29.4816L38.8396 29.3794C39.8661 28.8601 40.8963 28.3388 41.9314 27.8203C41.9102 27.9019 41.8884 27.9833 41.8663 28.0646Z" fill="white"/>
<path opacity="0.87" d="M41.9162 27.8804C40.8911 28.4352 39.8824 28.9879 38.8908 29.5317L38.4355 29.7847C37.8941 30.0704 37.3517 30.3576 36.8083 30.6454C31.8666 33.2623 26.8307 35.9291 21.5896 37.98C18.8072 39.0538 15.9776 39.9864 13.0556 40.6869C12.989 40.6524 12.9227 40.6176 12.8567 40.5824C15.8493 39.8783 18.7441 38.9764 21.5896 37.8282C27.2338 35.6002 32.6842 32.6454 37.9883 29.7699L38.3343 29.5824L38.7896 29.3293C39.8381 28.7544 40.9057 28.1703 41.9918 27.585C41.9673 27.6838 41.9421 27.7822 41.9162 27.8804Z" fill="white"/>
<path opacity="0.9" d="M42.023 27.4542C41.0659 28.0066 40.1337 28.5517 39.2281 29.0811L38.8902 29.2786L38.1314 29.7339C33.022 32.7691 27.7609 35.8551 22.2468 38.2327C19.5992 39.388 16.8143 40.4058 14.0228 41.1556C13.9174 41.1079 13.8125 41.0593 13.708 41.01C16.5687 40.2552 19.3812 39.215 22.1456 38.0303C27.6597 35.6527 32.9714 32.5668 38.0302 29.5822L38.789 29.1268L39.1242 28.9309C40.0803 28.3719 41.0662 27.7956 42.0799 27.2114C42.0614 27.2926 42.0424 27.3735 42.023 27.4542Z" fill="white"/>
<path opacity="0.94" d="M42.0904 27.1659C41.0826 27.7899 40.0677 28.4281 39.0422 29.0767L38.0305 29.7344C37.8196 29.867 37.6084 29.9998 37.3971 30.1328C32.6924 33.0929 27.8912 36.1139 22.9046 38.4861C20.3396 39.7211 17.7301 40.733 14.9922 41.5639C14.8877 41.5231 14.7836 41.4814 14.6799 41.439C17.4688 40.5938 20.2072 39.5573 22.8034 38.2838C27.682 35.9629 32.3832 33.0211 36.9486 30.1643C37.2592 29.9699 37.5693 29.776 37.8786 29.5826L38.8905 28.9249C39.9895 28.2273 41.0758 27.5424 42.1537 26.8745C42.1332 26.9719 42.1122 27.069 42.0904 27.1659Z" fill="white"/>
<path opacity="0.97" d="M42.16 26.844C41.1369 27.5274 40.1153 28.2228 39.0929 28.9245L37.8788 29.7339C37.6436 29.8941 37.4082 30.0546 37.1723 30.2155C32.789 33.2042 28.2668 36.2878 23.5623 38.6881C21.1251 39.9534 18.6012 41.0452 15.9904 41.923C15.8982 41.8925 15.8062 41.8614 15.7146 41.8296C18.3876 40.942 20.9698 39.8299 23.4611 38.5362C28.4188 35.9562 33.174 32.7186 37.7776 29.5821L38.9917 28.7727C40.0647 28.0411 41.1358 27.3162 42.2082 26.6045C42.1927 26.6845 42.1766 26.7643 42.16 26.844Z" fill="white"/>
<path d="M42.2323 26.4813C41.2015 27.2168 40.1732 27.9663 39.1439 28.7225L37.778 29.7342L37.7603 29.7472C31.3164 34.4954 24.6861 39.3808 17.1587 42.2706C17.0791 42.2495 16.9997 42.228 16.9204 42.206C24.4506 39.3281 31.1496 34.392 37.6586 29.5959L37.6768 29.5825L39.0427 28.5706C40.1214 27.7708 41.2001 26.9795 42.2825 26.2046C42.2664 26.297 42.2496 26.3893 42.2323 26.4813Z" fill="white"/>
<path d="M22.5 44C10.6117 44 1 34.3883 1 22.5C1 10.6117 10.6117 1 22.5 1C34.3883 1 44 10.6117 44 22.5C44 34.3883 34.3883 44 22.5 44ZM22.5 3.27652C11.8765 3.27652 3.27647 11.8765 3.27647 22.5C3.27647 33.1235 11.8765 41.7235 22.5 41.7235C33.1235 41.7235 41.7235 33.1235 41.7235 22.5C41.7235 11.8765 33.1235 3.27652 22.5 3.27652Z" fill="white"/>
<path d="M24.9104 14.7777L27.2799 17.5986L29.1534 15.7131V25.6309H25.4638V29.3345H36.5428V25.6309H32.8391V10.4814H29.1534L24.9104 14.7777Z" fill="white"/>
<path d="M16.865 29.1744C15.5816 29.1744 14.4212 28.9547 13.3839 28.5152C12.3642 28.0756 11.5555 27.4427 10.9577 26.6164C10.3599 25.7901 10.0523 24.8142 10.0347 23.6891H13.9905C14.0433 24.4451 14.3069 25.0428 14.7816 25.4824C15.2739 25.9219 15.9421 26.1417 16.7859 26.1417C17.6474 26.1417 18.3244 25.9395 18.8166 25.5351C19.3089 25.1131 19.555 24.5681 19.555 23.9001C19.555 23.355 19.388 22.9067 19.0539 22.555C18.7199 22.2035 18.298 21.9309 17.7881 21.7375C17.2958 21.5266 16.6101 21.298 15.7311 21.0518C14.5355 20.7002 13.5598 20.3573 12.8037 20.0234C12.0653 19.6717 11.4236 19.1531 10.8786 18.4673C10.3511 17.7642 10.0874 16.8323 10.0874 15.6719C10.0874 14.5819 10.3599 13.6324 10.9049 12.8237C11.45 12.015 12.2147 11.3996 13.1993 10.9777C14.1839 10.5381 15.3091 10.3184 16.5749 10.3184C18.4738 10.3184 20.0122 10.7843 21.1901 11.7161C22.3857 12.6303 23.045 13.9137 23.168 15.5665H19.1067C19.0715 14.9335 18.799 14.4148 18.2892 14.0104C17.7969 13.5885 17.1376 13.3776 16.3113 13.3776C15.5904 13.3776 15.0102 13.5621 14.5707 13.9313C14.1488 14.3006 13.9378 14.8368 13.9378 15.5401C13.9378 16.0323 14.096 16.4455 14.4124 16.7795C14.7465 17.096 15.1509 17.3598 15.6256 17.5707C16.1179 17.7642 16.8035 17.9926 17.6826 18.2564C18.8781 18.608 19.8539 18.9596 20.61 19.3113C21.3659 19.6629 22.0164 20.1903 22.5615 20.8936C23.1065 21.5969 23.379 22.5199 23.379 23.6627C23.379 24.6472 23.124 25.5615 22.6142 26.4054C22.1043 27.2493 21.3571 27.9262 20.3726 28.4361C19.388 28.9284 18.2189 29.1744 16.865 29.1744Z" fill="white"/>
</svg>
