<svg width="32" height="32" viewBox="0 0 32 32" fill="none" xmlns="http://www.w3.org/2000/svg">
<mask id="path-1-inside-1_735_907" fill="white">
<path fill-rule="evenodd" clip-rule="evenodd" d="M2 6C2 7.86384 3.27477 9.42994 5 9.87398V22.126C3.27477 22.5701 2 24.1362 2 26C2 28.2091 3.79086 30 6 30C7.86384 30 9.42994 28.7252 9.87398 27H22.126C22.5701 28.7252 24.1362 30 26 30C28.2091 30 30 28.2091 30 26C30 24.1362 28.7252 22.5701 27 22.126V9.87398C28.7252 9.42994 30 7.86384 30 6C30 3.79086 28.2091 2 26 2C24.1362 2 22.5701 3.27477 22.126 5H9.87398C9.42994 3.27477 7.86384 2 6 2C3.79086 2 2 3.79086 2 6ZM25 22.126V9.87398C23.5944 9.5122 22.4878 8.40561 22.126 7H9.87398C9.5122 8.40561 8.40561 9.5122 7 9.87398V22.126C8.40561 22.4878 9.5122 23.5944 9.87398 25H22.126C22.4878 23.5944 23.5944 22.4878 25 22.126Z"/>
</mask>
<path fill-rule="evenodd" clip-rule="evenodd" d="M2 6C2 7.86384 3.27477 9.42994 5 9.87398V22.126C3.27477 22.5701 2 24.1362 2 26C2 28.2091 3.79086 30 6 30C7.86384 30 9.42994 28.7252 9.87398 27H22.126C22.5701 28.7252 24.1362 30 26 30C28.2091 30 30 28.2091 30 26C30 24.1362 28.7252 22.5701 27 22.126V9.87398C28.7252 9.42994 30 7.86384 30 6C30 3.79086 28.2091 2 26 2C24.1362 2 22.5701 3.27477 22.126 5H9.87398C9.42994 3.27477 7.86384 2 6 2C3.79086 2 2 3.79086 2 6ZM25 22.126V9.87398C23.5944 9.5122 22.4878 8.40561 22.126 7H9.87398C9.5122 8.40561 8.40561 9.5122 7 9.87398V22.126C8.40561 22.4878 9.5122 23.5944 9.87398 25H22.126C22.4878 23.5944 23.5944 22.4878 25 22.126Z" fill="white"/>
<path d="M5 9.87398H7V8.32356L5.49852 7.93711L5 9.87398ZM5 22.126L5.49852 24.0629L7 23.6764V22.126H5ZM9.87398 27V25H8.32356L7.93711 26.5015L9.87398 27ZM22.126 27L24.0629 26.5015L23.6764 25H22.126V27ZM27 22.126H25V23.6764L26.5015 24.0629L27 22.126ZM27 9.87398L26.5015 7.93711L25 8.32356V9.87398H27ZM22.126 5V7H23.6764L24.0629 5.49852L22.126 5ZM9.87398 5L7.93711 5.49852L8.32356 7H9.87398V5ZM25 9.87398H27V8.32356L25.4985 7.93711L25 9.87398ZM25 22.126L25.4985 24.0629L27 23.6764V22.126H25ZM22.126 7L24.0629 6.50148L23.6764 5H22.126V7ZM9.87398 7V5H8.32356L7.93711 6.50148L9.87398 7ZM7 9.87398L6.50148 7.93711L5 8.32356V9.87398H7ZM7 22.126H5V23.6764L6.50148 24.0629L7 22.126ZM9.87398 25L7.93711 25.4985L8.32356 27H9.87398V25ZM22.126 25V27H23.6764L24.0629 25.4985L22.126 25ZM5.49852 7.93711C4.63547 7.71498 4 6.92918 4 6H0C0 8.7985 1.91407 11.1449 4.50148 11.8109L5.49852 7.93711ZM7 22.126V9.87398H3V22.126H7ZM4 26C4 25.0708 4.63547 24.285 5.49852 24.0629L4.50148 20.1891C1.91407 20.8551 0 23.2015 0 26H4ZM6 28C4.89543 28 4 27.1046 4 26H0C0 29.3137 2.68629 32 6 32V28ZM7.93711 26.5015C7.71498 27.3645 6.92918 28 6 28V32C8.7985 32 11.1449 30.0859 11.8109 27.4985L7.93711 26.5015ZM22.126 25H9.87398V29H22.126V25ZM26 28C25.0708 28 24.285 27.3645 24.0629 26.5015L20.1891 27.4985C20.8551 30.0859 23.2015 32 26 32V28ZM28 26C28 27.1046 27.1046 28 26 28V32C29.3137 32 32 29.3137 32 26H28ZM26.5015 24.0629C27.3645 24.285 28 25.0708 28 26H32C32 23.2015 30.0859 20.8551 27.4985 20.1891L26.5015 24.0629ZM25 9.87398V22.126H29V9.87398H25ZM28 6C28 6.92918 27.3645 7.71498 26.5015 7.93711L27.4985 11.8109C30.0859 11.1449 32 8.7985 32 6H28ZM26 4C27.1046 4 28 4.89543 28 6H32C32 2.68629 29.3137 0 26 0V4ZM24.0629 5.49852C24.285 4.63547 25.0708 4 26 4V0C23.2015 0 20.8551 1.91407 20.1891 4.50148L24.0629 5.49852ZM9.87398 7H22.126V3H9.87398V7ZM6 4C6.92918 4 7.71498 4.63547 7.93711 5.49852L11.8109 4.50148C11.1449 1.91407 8.7985 0 6 0V4ZM4 6C4 4.89543 4.89543 4 6 4V0C2.68629 0 0 2.68629 0 6H4ZM23 9.87398V22.126H27V9.87398H23ZM20.1891 7.49852C20.7325 9.6098 22.3902 11.2674 24.5015 11.8109L25.4985 7.93711C24.7986 7.75696 24.243 7.20141 24.0629 6.50148L20.1891 7.49852ZM9.87398 9H22.126V5H9.87398V9ZM7.49852 11.8109C9.6098 11.2674 11.2674 9.6098 11.8109 7.49852L7.93711 6.50148C7.75696 7.20141 7.20141 7.75696 6.50148 7.93711L7.49852 11.8109ZM9 22.126V9.87398H5V22.126H9ZM11.8109 24.5015C11.2674 22.3902 9.6098 20.7325 7.49852 20.1891L6.50148 24.0629C7.20141 24.243 7.75696 24.7986 7.93711 25.4985L11.8109 24.5015ZM22.126 23H9.87398V27H22.126V23ZM24.0629 25.4985C24.243 24.7986 24.7986 24.243 25.4985 24.0629L24.5015 20.1891C22.3902 20.7325 20.7325 22.3902 20.1891 24.5015L24.0629 25.4985Z" fill="#384F5F" mask="url(#path-1-inside-1_735_907)"/>
</svg>
