<svg width="44" height="44" viewBox="0 0 44 44" fill="none" xmlns="http://www.w3.org/2000/svg">
<path fill-rule="evenodd" clip-rule="evenodd" d="M1.13481 28.9209C1.28803 29.3825 1.79772 29.6126 2.25253 29.4415C2.70709 29.2706 2.93459 28.7639 2.78305 28.302C1.27436 23.7037 1.45726 18.708 3.31701 14.2245C5.28928 9.46975 8.99924 5.64845 13.6918 3.53833C18.3844 1.4282 23.7069 1.18784 28.5761 2.86615C33.1672 4.44862 37.03 7.62471 39.4735 11.8023C39.7191 12.2223 40.2502 12.3885 40.6799 12.1617C41.1094 11.9351 41.2749 11.4019 41.0309 10.9814C38.3772 6.40754 34.1618 2.92978 29.147 1.20128C23.8544 -0.62298 18.069 -0.361714 12.9684 1.9319C7.86779 4.22551 3.83522 8.3791 1.69145 13.5473C-0.339722 18.444 -0.530685 23.9029 1.13481 28.9209ZM42.9721 15.3662C42.8262 14.9025 42.3202 14.6655 41.8627 14.8303C41.4054 14.995 41.17 15.4986 41.3142 15.9625C42.7502 20.5807 42.4885 25.5732 40.5582 30.0306C38.511 34.7576 34.741 38.5276 30.0154 40.5733C25.2899 42.6189 19.9639 42.7864 15.1215 41.0417C10.5557 39.3967 6.7433 36.1682 4.36592 31.9578C4.12692 31.5345 3.5985 31.3611 3.16521 31.582C2.73221 31.8027 2.55828 32.3335 2.79563 32.7573C5.37702 37.3668 9.53721 40.9017 14.5244 42.6986C19.7879 44.595 25.577 44.4129 30.7135 42.1894C35.8499 39.9658 39.9478 35.868 42.1729 30.7299C44.2812 25.8617 44.5583 20.4062 42.9721 15.3662Z" fill="#02A783"/>
</svg>
