<svg width="44" height="44" viewBox="0 0 44 44" fill="none" xmlns="http://www.w3.org/2000/svg">
<path fill-rule="evenodd" clip-rule="evenodd" d="M1.13475 28.9209C1.28796 29.3825 1.79766 29.6125 2.25247 29.4415C2.70703 29.2706 2.93453 28.7638 2.78299 28.302C1.2743 23.7037 1.4572 18.708 3.31695 14.2245C5.28923 9.46974 8.99918 5.64845 13.6918 3.53832C18.3843 1.4282 23.7069 1.18784 28.5761 2.86615C33.1672 4.44861 37.0299 7.62471 39.4734 11.8023C39.7191 12.2223 40.2501 12.3885 40.6799 12.1617C41.1093 11.9351 41.2749 11.4019 41.0309 10.9814C38.3771 6.40754 34.1618 2.92978 29.147 1.20128C23.8543 -0.622979 18.069 -0.361714 12.9684 1.9319C7.86773 4.22551 3.83516 8.3791 1.69139 13.5473C-0.339783 18.444 -0.530747 23.9029 1.13475 28.9209ZM42.9721 15.3662C42.8262 14.9025 42.3202 14.6656 41.8627 14.8303C41.4055 14.995 41.17 15.4986 41.3143 15.9625C42.7503 20.5807 42.4886 25.5732 40.5582 30.0306C38.511 34.7576 34.741 38.5276 30.0155 40.5733C25.2899 42.6189 19.964 42.7864 15.1216 41.0417C10.5557 39.3967 6.74335 36.1682 4.36596 31.9578C4.12696 31.5345 3.59854 31.3611 3.16525 31.582C2.73225 31.8027 2.55832 32.3335 2.79568 32.7573C5.37707 37.3668 9.53726 40.9017 14.5245 42.6986C19.7879 44.595 25.577 44.4129 30.7135 42.1894C35.85 39.9658 39.9478 35.868 42.173 30.7299C44.2813 25.8617 44.5584 20.4062 42.9721 15.3662Z" fill="#65D6AD"/>
</svg>
