<svg width="178" height="142" viewBox="0 0 178 142" fill="none" xmlns="http://www.w3.org/2000/svg">
<path d="M168.417 80.5165C168.414 47.6329 148.461 18.0552 118.015 5.8018C87.5683 -6.45155 52.7472 1.08185 30.0547 24.8315C7.36226 48.5812 1.35869 83.7746 14.8894 113.732H161.267C165.989 103.299 168.427 91.9729 168.417 80.5165Z" fill="#C6F7E2"/>
<path fill-rule="evenodd" clip-rule="evenodd" d="M0.575195 113.298C0.575195 112.67 1.08396 112.161 1.71156 112.161H6.73274C7.36034 112.161 7.8691 112.67 7.8691 113.298C7.8691 113.925 7.36034 114.434 6.73274 114.434H1.71156C1.08396 114.434 0.575195 113.925 0.575195 113.298ZM9.45261 113.298C9.45261 112.67 9.96138 112.161 10.589 112.161H167.25C167.877 112.161 168.386 112.67 168.386 113.298C168.386 113.925 167.877 114.434 167.25 114.434H10.589C9.96138 114.434 9.45261 113.925 9.45261 113.298ZM171.267 112.161C170.639 112.161 170.13 112.67 170.13 113.298C170.13 113.925 170.639 114.434 171.267 114.434H176.288C176.916 114.434 177.424 113.925 177.424 113.298C177.424 112.67 176.916 112.161 176.288 112.161H171.267Z" fill="#02A783"/>
<path d="M47.6087 94.0844V116.886H72.5469V94.0844V93.8862V94.0844L90.6124 69.3005C92.5761 67.3178 92.5761 63.9472 90.6124 61.7662C88.6488 59.7835 85.3106 59.7835 83.1506 61.7662L68.4233 81.1968H49.5723C43.8778 81.1968 39.165 85.9553 39.165 91.7052V106.377C39.165 111.532 42.6996 115.696 47.6087 116.687V94.0844Z" fill="#F7FFFB"/>
<path d="M59.9796 79.2141C65.6741 79.2141 70.3869 74.4556 70.3869 68.7057C70.3869 62.9558 65.6741 58.1973 59.9796 58.1973C54.285 58.1973 49.5723 62.9558 49.5723 68.7057C49.5723 74.4556 54.285 79.2141 59.9796 79.2141Z" fill="#F7FFFB"/>
<path d="M136.758 116.886C141.471 115.894 145.201 111.731 145.201 106.575V91.9034C145.201 86.1535 140.489 81.395 134.794 81.395H115.943L101.02 61.9645C99.0559 59.9817 95.7177 59.9817 93.5577 61.9645C91.5941 63.9472 91.5941 67.3178 93.5577 69.4988L111.82 94.0844V93.8861V94.0844V116.886H136.758V94.0844V93.8861V94.0844V116.886Z" fill="#F7FFFB"/>
<path d="M124.387 79.2141C118.692 79.2141 113.979 74.4556 113.979 68.7057C113.979 62.9558 118.692 58.1973 124.387 58.1973C130.081 58.1973 134.794 62.9558 134.794 68.7057C134.794 74.4556 130.081 79.2141 124.387 79.2141Z" fill="#F7FFFB"/>
<path d="M92.3802 25.6808H92.1836V36.1892H92.3802V25.6808Z" fill="white"/>
<path d="M72.9491 35.1921L72.8398 35.3569L82.6372 41.9648L82.7465 41.8001L72.9491 35.1921Z" fill="white"/>
<path d="M111.329 35.128L101.541 41.7483L101.65 41.913L111.439 35.2927L111.329 35.128Z" fill="white"/>
<path d="M92.1834 49.4734C93.3764 49.4734 94.3434 48.497 94.3434 47.2924C94.3434 46.0879 93.3764 45.1115 92.1834 45.1115C90.9905 45.1115 90.0234 46.0879 90.0234 47.2924C90.0234 48.497 90.9905 49.4734 92.1834 49.4734Z" fill="white"/>
<path d="M45.0535 94.5565V117.358H69.9918V94.5565V94.3583V94.5565L88.0573 69.7726C90.0209 67.7899 90.0209 64.4193 88.0573 62.2383C86.0936 60.2556 82.7554 60.2556 80.5954 62.2383L65.8681 81.6689H47.0172C41.3226 81.6689 36.6099 86.4274 36.6099 92.1773V106.849C36.6099 112.004 40.1444 116.168 45.0535 117.159V94.5565Z" stroke="#02A783" stroke-width="3" stroke-miterlimit="10" stroke-linecap="round" stroke-linejoin="round"/>
<path d="M57.4244 79.6862C63.1189 79.6862 67.8317 74.9277 67.8317 69.1778C67.8317 63.4279 63.1189 58.6694 57.4244 58.6694C51.7298 58.6694 47.0171 63.4279 47.0171 69.1778C47.0171 74.9277 51.7298 79.6862 57.4244 79.6862Z" stroke="#02A783" stroke-width="3" stroke-miterlimit="10" stroke-linecap="round" stroke-linejoin="round"/>
<path d="M134.203 117.358C138.916 116.366 142.647 112.203 142.647 107.048V92.3755C142.647 86.6257 137.934 81.8671 132.239 81.8671H113.389L98.4648 62.4366C96.5012 60.4538 93.163 60.4538 91.003 62.4366C89.0394 64.4193 89.0394 67.7899 91.003 69.9709L109.265 94.5565V94.3582V94.5565V117.358H134.203ZM134.203 117.358V94.5565V94.3582V94.5565V117.358Z" stroke="#02A783" stroke-width="3" stroke-miterlimit="10" stroke-linecap="round" stroke-linejoin="round"/>
<path d="M121.832 79.6862C116.138 79.6862 111.425 74.9277 111.425 69.1778C111.425 63.4279 116.138 58.6694 121.832 58.6694C127.527 58.6694 132.239 63.4279 132.239 69.1778C132.239 74.9277 127.527 79.6862 121.832 79.6862Z" stroke="#02A783" stroke-width="3" stroke-miterlimit="10" stroke-linecap="round" stroke-linejoin="round"/>
<path d="M89.8246 26.153H89.6279V36.6613H89.8246V26.153Z" stroke="#02A783" stroke-width="3" stroke-miterlimit="10" stroke-linecap="round" stroke-linejoin="round"/>
<path d="M70.3935 35.6642L70.2842 35.829L80.0816 42.4369L80.1908 42.2722L70.3935 35.6642Z" stroke="#02A783" stroke-width="3" stroke-miterlimit="10" stroke-linecap="round" stroke-linejoin="round"/>
<path d="M108.774 35.6001L98.9854 42.2204L99.0946 42.3851L108.883 35.7648L108.774 35.6001Z" stroke="#02A783" stroke-width="3" stroke-miterlimit="10" stroke-linecap="round" stroke-linejoin="round"/>
<path d="M89.6278 49.9455C90.8207 49.9455 91.7878 48.9691 91.7878 47.7645C91.7878 46.56 90.8207 45.5836 89.6278 45.5836C88.4348 45.5836 87.4678 46.56 87.4678 47.7645C87.4678 48.9691 88.4348 49.9455 89.6278 49.9455Z" stroke="#02A783" stroke-width="3" stroke-miterlimit="10" stroke-linecap="round" stroke-linejoin="round"/>
<path d="M91.8875 142C122.669 142 147.623 139.971 147.623 137.468C147.623 134.965 122.669 132.936 91.8875 132.936C61.1058 132.936 36.1523 134.965 36.1523 137.468C36.1523 139.971 61.1058 142 91.8875 142Z" fill="#EBEFEE"/>
</svg>
